<mxfile host="app.diagrams.net" modified="2023-10-15T15:49:10.224Z" agent="Mozilla/5.0 (X11; Ubuntu; Linux x86_64; rv:109.0) Gecko/20100101 Firefox/118.0" etag="ZWR9IPVTAoDzTKIj1sqO" version="22.0.4" type="device">
  <diagram name="PÃ¡gina-1" id="szElh8UJxJbQbfYT4Gpp">
    <mxGraphModel dx="3520" dy="1932" grid="1" gridSize="10" guides="1" tooltips="1" connect="1" arrows="1" fold="1" page="1" pageScale="1" pageWidth="850" pageHeight="1100" math="0" shadow="0">
      <root>
        <mxCell id="0" />
        <mxCell id="1" parent="0" />
        <mxCell id="d_a2fTk9RsJFn1gCwMeB-2" value="" style="rounded=0;whiteSpace=wrap;html=1;" vertex="1" parent="1">
          <mxGeometry x="80" y="410" width="120" height="200" as="geometry" />
        </mxCell>
        <mxCell id="d_a2fTk9RsJFn1gCwMeB-4" value="PAGES" style="swimlane;fontStyle=0;childLayout=stackLayout;horizontal=1;startSize=30;horizontalStack=0;resizeParent=1;resizeParentMax=0;resizeLast=0;collapsible=1;marginBottom=0;whiteSpace=wrap;html=1;" vertex="1" parent="1">
          <mxGeometry x="40" y="110" width="140" height="180" as="geometry" />
        </mxCell>
        <mxCell id="d_a2fTk9RsJFn1gCwMeB-5" value="HOME" style="text;strokeColor=none;fillColor=none;align=left;verticalAlign=middle;spacingLeft=4;spacingRight=4;overflow=hidden;points=[[0,0.5],[1,0.5]];portConstraint=eastwest;rotatable=0;whiteSpace=wrap;html=1;" vertex="1" parent="d_a2fTk9RsJFn1gCwMeB-4">
          <mxGeometry y="30" width="140" height="30" as="geometry" />
        </mxCell>
        <mxCell id="d_a2fTk9RsJFn1gCwMeB-6" value="PROJECTS" style="text;strokeColor=none;fillColor=none;align=left;verticalAlign=middle;spacingLeft=4;spacingRight=4;overflow=hidden;points=[[0,0.5],[1,0.5]];portConstraint=eastwest;rotatable=0;whiteSpace=wrap;html=1;" vertex="1" parent="d_a2fTk9RsJFn1gCwMeB-4">
          <mxGeometry y="60" width="140" height="30" as="geometry" />
        </mxCell>
        <mxCell id="d_a2fTk9RsJFn1gCwMeB-7" value="INFO" style="text;strokeColor=none;fillColor=none;align=left;verticalAlign=middle;spacingLeft=4;spacingRight=4;overflow=hidden;points=[[0,0.5],[1,0.5]];portConstraint=eastwest;rotatable=0;whiteSpace=wrap;html=1;" vertex="1" parent="d_a2fTk9RsJFn1gCwMeB-4">
          <mxGeometry y="90" width="140" height="30" as="geometry" />
        </mxCell>
        <mxCell id="d_a2fTk9RsJFn1gCwMeB-8" value="SKILLS" style="text;strokeColor=none;fillColor=none;align=left;verticalAlign=middle;spacingLeft=4;spacingRight=4;overflow=hidden;points=[[0,0.5],[1,0.5]];portConstraint=eastwest;rotatable=0;whiteSpace=wrap;html=1;" vertex="1" parent="d_a2fTk9RsJFn1gCwMeB-4">
          <mxGeometry y="120" width="140" height="30" as="geometry" />
        </mxCell>
        <mxCell id="d_a2fTk9RsJFn1gCwMeB-9" value="CONTACT" style="text;strokeColor=none;fillColor=none;align=left;verticalAlign=middle;spacingLeft=4;spacingRight=4;overflow=hidden;points=[[0,0.5],[1,0.5]];portConstraint=eastwest;rotatable=0;whiteSpace=wrap;html=1;" vertex="1" parent="d_a2fTk9RsJFn1gCwMeB-4">
          <mxGeometry y="150" width="140" height="30" as="geometry" />
        </mxCell>
        <mxCell id="d_a2fTk9RsJFn1gCwMeB-10" value="BACKGROUND" style="swimlane;fontStyle=0;childLayout=stackLayout;horizontal=1;startSize=30;horizontalStack=0;resizeParent=1;resizeParentMax=0;resizeLast=0;collapsible=1;marginBottom=0;whiteSpace=wrap;html=1;" vertex="1" parent="1">
          <mxGeometry x="190" y="110" width="140" height="90" as="geometry" />
        </mxCell>
        <mxCell id="d_a2fTk9RsJFn1gCwMeB-11" value="MAIN 242424&lt;span style=&quot;white-space: pre;&quot;&gt;&#x9;&lt;/span&gt;" style="text;strokeColor=none;fillColor=none;align=left;verticalAlign=middle;spacingLeft=4;spacingRight=4;overflow=hidden;points=[[0,0.5],[1,0.5]];portConstraint=eastwest;rotatable=0;whiteSpace=wrap;html=1;" vertex="1" parent="d_a2fTk9RsJFn1gCwMeB-10">
          <mxGeometry y="30" width="140" height="30" as="geometry" />
        </mxCell>
        <mxCell id="d_a2fTk9RsJFn1gCwMeB-12" value="SECOND 363333" style="text;strokeColor=none;fillColor=none;align=left;verticalAlign=middle;spacingLeft=4;spacingRight=4;overflow=hidden;points=[[0,0.5],[1,0.5]];portConstraint=eastwest;rotatable=0;whiteSpace=wrap;html=1;" vertex="1" parent="d_a2fTk9RsJFn1gCwMeB-10">
          <mxGeometry y="60" width="140" height="30" as="geometry" />
        </mxCell>
        <mxCell id="d_a2fTk9RsJFn1gCwMeB-14" value="FONTS" style="swimlane;fontStyle=0;childLayout=stackLayout;horizontal=1;startSize=30;horizontalStack=0;resizeParent=1;resizeParentMax=0;resizeLast=0;collapsible=1;marginBottom=0;whiteSpace=wrap;html=1;" vertex="1" parent="1">
          <mxGeometry x="340" y="110" width="140" height="150" as="geometry" />
        </mxCell>
        <mxCell id="d_a2fTk9RsJFn1gCwMeB-15" value="raleway" style="text;strokeColor=none;fillColor=none;align=left;verticalAlign=middle;spacingLeft=4;spacingRight=4;overflow=hidden;points=[[0,0.5],[1,0.5]];portConstraint=eastwest;rotatable=0;whiteSpace=wrap;html=1;" vertex="1" parent="d_a2fTk9RsJFn1gCwMeB-14">
          <mxGeometry y="30" width="140" height="30" as="geometry" />
        </mxCell>
        <mxCell id="d_a2fTk9RsJFn1gCwMeB-16" value="TITLE" style="text;strokeColor=none;fillColor=none;align=left;verticalAlign=middle;spacingLeft=4;spacingRight=4;overflow=hidden;points=[[0,0.5],[1,0.5]];portConstraint=eastwest;rotatable=0;whiteSpace=wrap;html=1;" vertex="1" parent="d_a2fTk9RsJFn1gCwMeB-14">
          <mxGeometry y="60" width="140" height="30" as="geometry" />
        </mxCell>
        <mxCell id="d_a2fTk9RsJFn1gCwMeB-17" value="SUBTITLE" style="text;strokeColor=none;fillColor=none;align=left;verticalAlign=middle;spacingLeft=4;spacingRight=4;overflow=hidden;points=[[0,0.5],[1,0.5]];portConstraint=eastwest;rotatable=0;whiteSpace=wrap;html=1;" vertex="1" parent="d_a2fTk9RsJFn1gCwMeB-14">
          <mxGeometry y="90" width="140" height="30" as="geometry" />
        </mxCell>
        <mxCell id="d_a2fTk9RsJFn1gCwMeB-18" value="p" style="text;strokeColor=none;fillColor=none;align=left;verticalAlign=middle;spacingLeft=4;spacingRight=4;overflow=hidden;points=[[0,0.5],[1,0.5]];portConstraint=eastwest;rotatable=0;whiteSpace=wrap;html=1;" vertex="1" parent="d_a2fTk9RsJFn1gCwMeB-14">
          <mxGeometry y="120" width="140" height="30" as="geometry" />
        </mxCell>
        <mxCell id="d_a2fTk9RsJFn1gCwMeB-19" value="&lt;font style=&quot;font-size: 54px;&quot;&gt;HOME&lt;/font&gt;" style="text;html=1;strokeColor=none;fillColor=none;align=center;verticalAlign=middle;whiteSpace=wrap;rounded=0;" vertex="1" parent="1">
          <mxGeometry x="490" y="330" width="150" height="60" as="geometry" />
        </mxCell>
        <mxCell id="d_a2fTk9RsJFn1gCwMeB-20" value="" style="rounded=0;whiteSpace=wrap;html=1;" vertex="1" parent="1">
          <mxGeometry x="240" y="410" width="250" height="370" as="geometry" />
        </mxCell>
        <mxCell id="d_a2fTk9RsJFn1gCwMeB-21" value="" style="rounded=0;whiteSpace=wrap;html=1;" vertex="1" parent="1">
          <mxGeometry x="520" y="410" width="530" height="370" as="geometry" />
        </mxCell>
        <mxCell id="d_a2fTk9RsJFn1gCwMeB-22" value="" style="rounded=0;whiteSpace=wrap;html=1;" vertex="1" parent="1">
          <mxGeometry x="80" y="590" width="120" height="20" as="geometry" />
        </mxCell>
        <mxCell id="d_a2fTk9RsJFn1gCwMeB-23" value="" style="rounded=0;whiteSpace=wrap;html=1;" vertex="1" parent="1">
          <mxGeometry x="180" y="595" width="10" height="10" as="geometry" />
        </mxCell>
        <mxCell id="d_a2fTk9RsJFn1gCwMeB-24" value="logo" style="text;html=1;strokeColor=none;fillColor=none;align=center;verticalAlign=middle;whiteSpace=wrap;rounded=0;" vertex="1" parent="1">
          <mxGeometry x="70" y="585" width="60" height="30" as="geometry" />
        </mxCell>
        <mxCell id="d_a2fTk9RsJFn1gCwMeB-25" value="" style="rounded=0;whiteSpace=wrap;html=1;" vertex="1" parent="1">
          <mxGeometry x="240" y="750" width="250" height="30" as="geometry" />
        </mxCell>
        <mxCell id="d_a2fTk9RsJFn1gCwMeB-26" value="" style="rounded=0;whiteSpace=wrap;html=1;" vertex="1" parent="1">
          <mxGeometry x="460" y="755" width="20" height="20" as="geometry" />
        </mxCell>
        <mxCell id="d_a2fTk9RsJFn1gCwMeB-28" value="logo" style="text;html=1;strokeColor=none;fillColor=none;align=center;verticalAlign=middle;whiteSpace=wrap;rounded=0;" vertex="1" parent="1">
          <mxGeometry x="240" y="750" width="60" height="30" as="geometry" />
        </mxCell>
        <mxCell id="d_a2fTk9RsJFn1gCwMeB-29" value="&lt;div align=&quot;left&quot;&gt;&amp;nbsp; &amp;nbsp; &amp;nbsp;&amp;nbsp; Home &amp;nbsp;&amp;nbsp; Projects &amp;nbsp;&amp;nbsp; Info &amp;nbsp;&amp;nbsp; Skills &amp;nbsp;&amp;nbsp; Contacts&lt;/div&gt;" style="rounded=0;whiteSpace=wrap;html=1;align=left;" vertex="1" parent="1">
          <mxGeometry x="520" y="430" width="530" height="20" as="geometry" />
        </mxCell>
        <mxCell id="d_a2fTk9RsJFn1gCwMeB-30" value="TItle" style="rounded=0;whiteSpace=wrap;html=1;" vertex="1" parent="1">
          <mxGeometry x="520" y="410" width="530" height="20" as="geometry" />
        </mxCell>
        <mxCell id="d_a2fTk9RsJFn1gCwMeB-32" value="" style="rounded=0;whiteSpace=wrap;html=1;" vertex="1" parent="1">
          <mxGeometry x="80" y="410" width="120" height="20" as="geometry" />
        </mxCell>
        <mxCell id="d_a2fTk9RsJFn1gCwMeB-34" value="" style="rounded=0;whiteSpace=wrap;html=1;" vertex="1" parent="1">
          <mxGeometry x="520" y="450" width="110" height="330" as="geometry" />
        </mxCell>
        <mxCell id="d_a2fTk9RsJFn1gCwMeB-35" value="" style="rounded=0;whiteSpace=wrap;html=1;" vertex="1" parent="1">
          <mxGeometry x="630" y="450" width="420" height="20" as="geometry" />
        </mxCell>
        <mxCell id="d_a2fTk9RsJFn1gCwMeB-37" value="" style="rounded=0;whiteSpace=wrap;html=1;" vertex="1" parent="1">
          <mxGeometry x="80" y="890" width="120" height="200" as="geometry" />
        </mxCell>
        <mxCell id="d_a2fTk9RsJFn1gCwMeB-38" value="&lt;font style=&quot;font-size: 54px;&quot;&gt;PROJECTS&lt;/font&gt;" style="text;html=1;strokeColor=none;fillColor=none;align=center;verticalAlign=middle;whiteSpace=wrap;rounded=0;" vertex="1" parent="1">
          <mxGeometry x="490" y="810" width="150" height="60" as="geometry" />
        </mxCell>
        <mxCell id="d_a2fTk9RsJFn1gCwMeB-39" value="" style="rounded=0;whiteSpace=wrap;html=1;" vertex="1" parent="1">
          <mxGeometry x="240" y="890" width="250" height="370" as="geometry" />
        </mxCell>
        <mxCell id="d_a2fTk9RsJFn1gCwMeB-41" value="" style="rounded=0;whiteSpace=wrap;html=1;" vertex="1" parent="1">
          <mxGeometry x="80" y="1070" width="120" height="20" as="geometry" />
        </mxCell>
        <mxCell id="d_a2fTk9RsJFn1gCwMeB-42" value="" style="rounded=0;whiteSpace=wrap;html=1;" vertex="1" parent="1">
          <mxGeometry x="180" y="1075" width="10" height="10" as="geometry" />
        </mxCell>
        <mxCell id="d_a2fTk9RsJFn1gCwMeB-43" value="logo" style="text;html=1;strokeColor=none;fillColor=none;align=center;verticalAlign=middle;whiteSpace=wrap;rounded=0;" vertex="1" parent="1">
          <mxGeometry x="70" y="1065" width="60" height="30" as="geometry" />
        </mxCell>
        <mxCell id="d_a2fTk9RsJFn1gCwMeB-44" value="" style="rounded=0;whiteSpace=wrap;html=1;" vertex="1" parent="1">
          <mxGeometry x="240" y="1230" width="250" height="30" as="geometry" />
        </mxCell>
        <mxCell id="d_a2fTk9RsJFn1gCwMeB-45" value="" style="rounded=0;whiteSpace=wrap;html=1;" vertex="1" parent="1">
          <mxGeometry x="460" y="1235" width="20" height="20" as="geometry" />
        </mxCell>
        <mxCell id="d_a2fTk9RsJFn1gCwMeB-46" value="logo" style="text;html=1;strokeColor=none;fillColor=none;align=center;verticalAlign=middle;whiteSpace=wrap;rounded=0;" vertex="1" parent="1">
          <mxGeometry x="240" y="1230" width="60" height="30" as="geometry" />
        </mxCell>
        <mxCell id="d_a2fTk9RsJFn1gCwMeB-49" value="" style="rounded=0;whiteSpace=wrap;html=1;" vertex="1" parent="1">
          <mxGeometry x="80" y="890" width="120" height="20" as="geometry" />
        </mxCell>
        <mxCell id="d_a2fTk9RsJFn1gCwMeB-52" value="" style="rounded=0;whiteSpace=wrap;html=1;" vertex="1" parent="1">
          <mxGeometry x="90" y="1380" width="120" height="200" as="geometry" />
        </mxCell>
        <mxCell id="d_a2fTk9RsJFn1gCwMeB-53" value="&lt;font style=&quot;font-size: 54px;&quot;&gt;INFO&lt;/font&gt;" style="text;html=1;strokeColor=none;fillColor=none;align=center;verticalAlign=middle;whiteSpace=wrap;rounded=0;" vertex="1" parent="1">
          <mxGeometry x="500" y="1300" width="150" height="60" as="geometry" />
        </mxCell>
        <mxCell id="d_a2fTk9RsJFn1gCwMeB-54" value="" style="rounded=0;whiteSpace=wrap;html=1;" vertex="1" parent="1">
          <mxGeometry x="250" y="1380" width="250" height="370" as="geometry" />
        </mxCell>
        <mxCell id="d_a2fTk9RsJFn1gCwMeB-55" value="" style="rounded=0;whiteSpace=wrap;html=1;" vertex="1" parent="1">
          <mxGeometry x="530" y="1380" width="530" height="370" as="geometry" />
        </mxCell>
        <mxCell id="d_a2fTk9RsJFn1gCwMeB-56" value="" style="rounded=0;whiteSpace=wrap;html=1;" vertex="1" parent="1">
          <mxGeometry x="90" y="1560" width="120" height="20" as="geometry" />
        </mxCell>
        <mxCell id="d_a2fTk9RsJFn1gCwMeB-57" value="" style="rounded=0;whiteSpace=wrap;html=1;" vertex="1" parent="1">
          <mxGeometry x="190" y="1565" width="10" height="10" as="geometry" />
        </mxCell>
        <mxCell id="d_a2fTk9RsJFn1gCwMeB-58" value="logo" style="text;html=1;strokeColor=none;fillColor=none;align=center;verticalAlign=middle;whiteSpace=wrap;rounded=0;" vertex="1" parent="1">
          <mxGeometry x="80" y="1555" width="60" height="30" as="geometry" />
        </mxCell>
        <mxCell id="d_a2fTk9RsJFn1gCwMeB-59" value="" style="rounded=0;whiteSpace=wrap;html=1;" vertex="1" parent="1">
          <mxGeometry x="250" y="1720" width="250" height="30" as="geometry" />
        </mxCell>
        <mxCell id="d_a2fTk9RsJFn1gCwMeB-60" value="" style="rounded=0;whiteSpace=wrap;html=1;" vertex="1" parent="1">
          <mxGeometry x="470" y="1725" width="20" height="20" as="geometry" />
        </mxCell>
        <mxCell id="d_a2fTk9RsJFn1gCwMeB-61" value="logo" style="text;html=1;strokeColor=none;fillColor=none;align=center;verticalAlign=middle;whiteSpace=wrap;rounded=0;" vertex="1" parent="1">
          <mxGeometry x="250" y="1720" width="60" height="30" as="geometry" />
        </mxCell>
        <mxCell id="d_a2fTk9RsJFn1gCwMeB-62" value="&lt;div align=&quot;left&quot;&gt;&amp;nbsp; &amp;nbsp; &amp;nbsp;&amp;nbsp; Home &amp;nbsp;&amp;nbsp; Projects &amp;nbsp;&amp;nbsp; Info &amp;nbsp;&amp;nbsp; Skills &amp;nbsp;&amp;nbsp; Contacts&lt;/div&gt;" style="rounded=0;whiteSpace=wrap;html=1;align=left;" vertex="1" parent="1">
          <mxGeometry x="530" y="1400" width="530" height="20" as="geometry" />
        </mxCell>
        <mxCell id="d_a2fTk9RsJFn1gCwMeB-63" value="TItle" style="rounded=0;whiteSpace=wrap;html=1;" vertex="1" parent="1">
          <mxGeometry x="530" y="1380" width="530" height="20" as="geometry" />
        </mxCell>
        <mxCell id="d_a2fTk9RsJFn1gCwMeB-64" value="" style="rounded=0;whiteSpace=wrap;html=1;" vertex="1" parent="1">
          <mxGeometry x="90" y="1380" width="120" height="20" as="geometry" />
        </mxCell>
        <mxCell id="d_a2fTk9RsJFn1gCwMeB-65" value="" style="rounded=0;whiteSpace=wrap;html=1;" vertex="1" parent="1">
          <mxGeometry x="530" y="1420" width="110" height="330" as="geometry" />
        </mxCell>
        <mxCell id="d_a2fTk9RsJFn1gCwMeB-66" value="" style="rounded=0;whiteSpace=wrap;html=1;" vertex="1" parent="1">
          <mxGeometry x="640" y="1420" width="420" height="20" as="geometry" />
        </mxCell>
        <mxCell id="d_a2fTk9RsJFn1gCwMeB-67" value="" style="rounded=0;whiteSpace=wrap;html=1;" vertex="1" parent="1">
          <mxGeometry x="95" y="1860" width="120" height="200" as="geometry" />
        </mxCell>
        <mxCell id="d_a2fTk9RsJFn1gCwMeB-68" value="&lt;font style=&quot;font-size: 54px;&quot;&gt;CONTACT&lt;/font&gt;" style="text;html=1;strokeColor=none;fillColor=none;align=center;verticalAlign=middle;whiteSpace=wrap;rounded=0;" vertex="1" parent="1">
          <mxGeometry x="505" y="1780" width="150" height="60" as="geometry" />
        </mxCell>
        <mxCell id="d_a2fTk9RsJFn1gCwMeB-69" value="" style="rounded=0;whiteSpace=wrap;html=1;" vertex="1" parent="1">
          <mxGeometry x="255" y="1860" width="250" height="370" as="geometry" />
        </mxCell>
        <mxCell id="d_a2fTk9RsJFn1gCwMeB-70" value="" style="rounded=0;whiteSpace=wrap;html=1;" vertex="1" parent="1">
          <mxGeometry x="535" y="1860" width="530" height="370" as="geometry" />
        </mxCell>
        <mxCell id="d_a2fTk9RsJFn1gCwMeB-71" value="" style="rounded=0;whiteSpace=wrap;html=1;" vertex="1" parent="1">
          <mxGeometry x="95" y="2040" width="120" height="20" as="geometry" />
        </mxCell>
        <mxCell id="d_a2fTk9RsJFn1gCwMeB-72" value="" style="rounded=0;whiteSpace=wrap;html=1;" vertex="1" parent="1">
          <mxGeometry x="195" y="2045" width="10" height="10" as="geometry" />
        </mxCell>
        <mxCell id="d_a2fTk9RsJFn1gCwMeB-73" value="logo" style="text;html=1;strokeColor=none;fillColor=none;align=center;verticalAlign=middle;whiteSpace=wrap;rounded=0;" vertex="1" parent="1">
          <mxGeometry x="85" y="2035" width="60" height="30" as="geometry" />
        </mxCell>
        <mxCell id="d_a2fTk9RsJFn1gCwMeB-74" value="" style="rounded=0;whiteSpace=wrap;html=1;" vertex="1" parent="1">
          <mxGeometry x="255" y="2200" width="250" height="30" as="geometry" />
        </mxCell>
        <mxCell id="d_a2fTk9RsJFn1gCwMeB-75" value="" style="rounded=0;whiteSpace=wrap;html=1;" vertex="1" parent="1">
          <mxGeometry x="475" y="2205" width="20" height="20" as="geometry" />
        </mxCell>
        <mxCell id="d_a2fTk9RsJFn1gCwMeB-76" value="logo" style="text;html=1;strokeColor=none;fillColor=none;align=center;verticalAlign=middle;whiteSpace=wrap;rounded=0;" vertex="1" parent="1">
          <mxGeometry x="255" y="2200" width="60" height="30" as="geometry" />
        </mxCell>
        <mxCell id="d_a2fTk9RsJFn1gCwMeB-77" value="&lt;div align=&quot;left&quot;&gt;&amp;nbsp; &amp;nbsp; &amp;nbsp;&amp;nbsp; Home &amp;nbsp;&amp;nbsp; Projects &amp;nbsp;&amp;nbsp; Info &amp;nbsp;&amp;nbsp; Skills &amp;nbsp;&amp;nbsp; Contacts&lt;/div&gt;" style="rounded=0;whiteSpace=wrap;html=1;align=left;" vertex="1" parent="1">
          <mxGeometry x="535" y="1880" width="530" height="20" as="geometry" />
        </mxCell>
        <mxCell id="d_a2fTk9RsJFn1gCwMeB-78" value="TItle" style="rounded=0;whiteSpace=wrap;html=1;" vertex="1" parent="1">
          <mxGeometry x="535" y="1860" width="530" height="20" as="geometry" />
        </mxCell>
        <mxCell id="d_a2fTk9RsJFn1gCwMeB-79" value="" style="rounded=0;whiteSpace=wrap;html=1;" vertex="1" parent="1">
          <mxGeometry x="95" y="1860" width="120" height="20" as="geometry" />
        </mxCell>
        <mxCell id="d_a2fTk9RsJFn1gCwMeB-80" value="" style="rounded=0;whiteSpace=wrap;html=1;" vertex="1" parent="1">
          <mxGeometry x="535" y="1900" width="110" height="330" as="geometry" />
        </mxCell>
        <mxCell id="d_a2fTk9RsJFn1gCwMeB-81" value="" style="rounded=0;whiteSpace=wrap;html=1;" vertex="1" parent="1">
          <mxGeometry x="645" y="1900" width="420" height="20" as="geometry" />
        </mxCell>
        <mxCell id="d_a2fTk9RsJFn1gCwMeB-82" value="" style="rounded=0;whiteSpace=wrap;html=1;" vertex="1" parent="1">
          <mxGeometry x="80" y="620" width="120" height="200" as="geometry" />
        </mxCell>
        <mxCell id="d_a2fTk9RsJFn1gCwMeB-83" value="" style="rounded=0;whiteSpace=wrap;html=1;" vertex="1" parent="1">
          <mxGeometry x="80" y="800" width="120" height="20" as="geometry" />
        </mxCell>
        <mxCell id="d_a2fTk9RsJFn1gCwMeB-84" value="" style="rounded=0;whiteSpace=wrap;html=1;" vertex="1" parent="1">
          <mxGeometry x="180" y="805" width="10" height="10" as="geometry" />
        </mxCell>
        <mxCell id="d_a2fTk9RsJFn1gCwMeB-85" value="logo" style="text;html=1;strokeColor=none;fillColor=none;align=center;verticalAlign=middle;whiteSpace=wrap;rounded=0;" vertex="1" parent="1">
          <mxGeometry x="70" y="795" width="60" height="30" as="geometry" />
        </mxCell>
        <mxCell id="d_a2fTk9RsJFn1gCwMeB-86" value="" style="rounded=0;whiteSpace=wrap;html=1;" vertex="1" parent="1">
          <mxGeometry x="80" y="620" width="120" height="20" as="geometry" />
        </mxCell>
        <mxCell id="d_a2fTk9RsJFn1gCwMeB-91" value="&lt;font style=&quot;font-size: 7px;&quot;&gt;CONTACT&lt;/font&gt;" style="rounded=0;whiteSpace=wrap;html=1;" vertex="1" parent="1">
          <mxGeometry x="80" y="780" width="120" height="20" as="geometry" />
        </mxCell>
        <mxCell id="d_a2fTk9RsJFn1gCwMeB-92" value="&lt;font style=&quot;font-size: 9px;&quot;&gt;INFO&lt;/font&gt;" style="rounded=0;whiteSpace=wrap;html=1;" vertex="1" parent="1">
          <mxGeometry x="80" y="760" width="120" height="20" as="geometry" />
        </mxCell>
        <mxCell id="d_a2fTk9RsJFn1gCwMeB-93" value="&lt;font style=&quot;font-size: 9px;&quot;&gt;PROJECTS&lt;/font&gt;" style="rounded=0;whiteSpace=wrap;html=1;" vertex="1" parent="1">
          <mxGeometry x="80" y="740" width="120" height="20" as="geometry" />
        </mxCell>
        <mxCell id="d_a2fTk9RsJFn1gCwMeB-94" value="&lt;font style=&quot;font-size: 9px;&quot;&gt;HOME&lt;/font&gt;" style="rounded=0;whiteSpace=wrap;html=1;" vertex="1" parent="1">
          <mxGeometry x="80" y="720" width="120" height="20" as="geometry" />
        </mxCell>
        <mxCell id="d_a2fTk9RsJFn1gCwMeB-95" value="PROJECTS&amp;nbsp;&amp;nbsp;&amp;nbsp;&amp;nbsp;&amp;nbsp;&amp;nbsp;&amp;nbsp;&amp;nbsp;&amp;nbsp;&amp;nbsp;&amp;nbsp;&amp;nbsp;&amp;nbsp;&amp;nbsp; &lt;font style=&quot;font-size: 13px;&quot;&gt;CONTACT&lt;/font&gt;" style="rounded=0;whiteSpace=wrap;html=1;" vertex="1" parent="1">
          <mxGeometry x="240" y="730" width="250" height="20" as="geometry" />
        </mxCell>
        <mxCell id="d_a2fTk9RsJFn1gCwMeB-96" value="HOME&amp;nbsp;&amp;nbsp;&amp;nbsp;&amp;nbsp;&amp;nbsp;&amp;nbsp;&amp;nbsp;&amp;nbsp;&amp;nbsp;&amp;nbsp;&amp;nbsp;&amp;nbsp;&amp;nbsp;&amp;nbsp;&amp;nbsp;&amp;nbsp;&amp;nbsp;&amp;nbsp;&amp;nbsp;&amp;nbsp;&amp;nbsp; &lt;font style=&quot;font-size: 13px;&quot;&gt;INFO&lt;/font&gt;" style="rounded=0;whiteSpace=wrap;html=1;" vertex="1" parent="1">
          <mxGeometry x="240" y="710" width="250" height="20" as="geometry" />
        </mxCell>
        <mxCell id="d_a2fTk9RsJFn1gCwMeB-99" value="" style="ellipse;whiteSpace=wrap;html=1;aspect=fixed;" vertex="1" parent="1">
          <mxGeometry x="115" y="450" width="50" height="50" as="geometry" />
        </mxCell>
        <mxCell id="d_a2fTk9RsJFn1gCwMeB-100" value="&lt;h1 style=&quot;font-size: 13px;&quot;&gt;Lorem ipsum dolor sit amet, consectetur adipet dolore magna aliqua.&lt;/h1&gt;" style="text;html=1;strokeColor=none;fillColor=none;spacing=5;spacingTop=-20;whiteSpace=wrap;overflow=hidden;rounded=0;" vertex="1" parent="1">
          <mxGeometry x="90" y="510" width="120" height="55" as="geometry" />
        </mxCell>
        <mxCell id="d_a2fTk9RsJFn1gCwMeB-102" value="" style="ellipse;whiteSpace=wrap;html=1;aspect=fixed;" vertex="1" parent="1">
          <mxGeometry x="325" y="470" width="80" height="80" as="geometry" />
        </mxCell>
        <mxCell id="d_a2fTk9RsJFn1gCwMeB-103" value="&lt;h1 style=&quot;font-size: 13px;&quot;&gt;Lorem ipsum dolor sit amet, consectetur adipet dolore magna aliqua.&lt;/h1&gt;" style="text;html=1;strokeColor=none;fillColor=none;spacing=5;spacingTop=-20;whiteSpace=wrap;overflow=hidden;rounded=0;" vertex="1" parent="1">
          <mxGeometry x="280" y="585" width="170" height="77.5" as="geometry" />
        </mxCell>
        <mxCell id="d_a2fTk9RsJFn1gCwMeB-105" value="" style="ellipse;whiteSpace=wrap;html=1;aspect=fixed;" vertex="1" parent="1">
          <mxGeometry x="795" y="497.5" width="80" height="80" as="geometry" />
        </mxCell>
        <mxCell id="d_a2fTk9RsJFn1gCwMeB-106" value="&lt;h1 style=&quot;font-size: 13px;&quot;&gt;Lorem ipsum dolor sit amet, consectetur adipet dolore magna aliqua.&lt;/h1&gt;" style="text;html=1;strokeColor=none;fillColor=none;spacing=5;spacingTop=-20;whiteSpace=wrap;overflow=hidden;rounded=0;" vertex="1" parent="1">
          <mxGeometry x="755" y="615" width="170" height="77.5" as="geometry" />
        </mxCell>
        <mxCell id="d_a2fTk9RsJFn1gCwMeB-107" value="" style="rounded=0;whiteSpace=wrap;html=1;" vertex="1" parent="1">
          <mxGeometry x="520" y="450" width="30" height="330" as="geometry" />
        </mxCell>
        <mxCell id="d_a2fTk9RsJFn1gCwMeB-108" value="" style="ellipse;whiteSpace=wrap;html=1;aspect=fixed;" vertex="1" parent="1">
          <mxGeometry x="525" y="470" width="20" height="20" as="geometry" />
        </mxCell>
        <mxCell id="d_a2fTk9RsJFn1gCwMeB-109" value="" style="ellipse;whiteSpace=wrap;html=1;aspect=fixed;" vertex="1" parent="1">
          <mxGeometry x="525" y="500" width="20" height="20" as="geometry" />
        </mxCell>
        <mxCell id="d_a2fTk9RsJFn1gCwMeB-110" value="" style="ellipse;whiteSpace=wrap;html=1;aspect=fixed;" vertex="1" parent="1">
          <mxGeometry x="525" y="530" width="20" height="20" as="geometry" />
        </mxCell>
        <mxCell id="d_a2fTk9RsJFn1gCwMeB-111" value="" style="ellipse;whiteSpace=wrap;html=1;aspect=fixed;" vertex="1" parent="1">
          <mxGeometry x="525" y="557.5" width="20" height="20" as="geometry" />
        </mxCell>
        <mxCell id="d_a2fTk9RsJFn1gCwMeB-112" value="" style="ellipse;whiteSpace=wrap;html=1;aspect=fixed;" vertex="1" parent="1">
          <mxGeometry x="525" y="585" width="20" height="20" as="geometry" />
        </mxCell>
        <mxCell id="d_a2fTk9RsJFn1gCwMeB-113" value="" style="rounded=0;whiteSpace=wrap;html=1;" vertex="1" parent="1">
          <mxGeometry x="95" y="920" width="85" height="60" as="geometry" />
        </mxCell>
        <mxCell id="d_a2fTk9RsJFn1gCwMeB-114" value="" style="rounded=0;whiteSpace=wrap;html=1;" vertex="1" parent="1">
          <mxGeometry x="95" y="990" width="85" height="60" as="geometry" />
        </mxCell>
        <mxCell id="d_a2fTk9RsJFn1gCwMeB-115" value="" style="rounded=0;whiteSpace=wrap;html=1;" vertex="1" parent="1">
          <mxGeometry x="95" y="1060" width="85" height="10" as="geometry" />
        </mxCell>
        <mxCell id="d_a2fTk9RsJFn1gCwMeB-116" value="" style="rounded=0;whiteSpace=wrap;html=1;" vertex="1" parent="1">
          <mxGeometry x="260" y="910" width="85" height="60" as="geometry" />
        </mxCell>
        <mxCell id="d_a2fTk9RsJFn1gCwMeB-117" value="" style="rounded=0;whiteSpace=wrap;html=1;" vertex="1" parent="1">
          <mxGeometry x="375" y="910" width="85" height="60" as="geometry" />
        </mxCell>
        <mxCell id="d_a2fTk9RsJFn1gCwMeB-118" value="" style="rounded=0;whiteSpace=wrap;html=1;" vertex="1" parent="1">
          <mxGeometry x="260" y="990" width="85" height="60" as="geometry" />
        </mxCell>
        <mxCell id="d_a2fTk9RsJFn1gCwMeB-119" value="" style="rounded=0;whiteSpace=wrap;html=1;" vertex="1" parent="1">
          <mxGeometry x="375" y="990" width="85" height="60" as="geometry" />
        </mxCell>
        <mxCell id="d_a2fTk9RsJFn1gCwMeB-120" value="" style="rounded=0;whiteSpace=wrap;html=1;" vertex="1" parent="1">
          <mxGeometry x="260" y="1070" width="85" height="60" as="geometry" />
        </mxCell>
        <mxCell id="d_a2fTk9RsJFn1gCwMeB-121" value="" style="rounded=0;whiteSpace=wrap;html=1;" vertex="1" parent="1">
          <mxGeometry x="375" y="1065" width="85" height="60" as="geometry" />
        </mxCell>
        <mxCell id="d_a2fTk9RsJFn1gCwMeB-122" value="" style="rounded=0;whiteSpace=wrap;html=1;" vertex="1" parent="1">
          <mxGeometry x="520" y="890" width="530" height="370" as="geometry" />
        </mxCell>
        <mxCell id="d_a2fTk9RsJFn1gCwMeB-123" value="&lt;div align=&quot;left&quot;&gt;&amp;nbsp; &amp;nbsp; &amp;nbsp;&amp;nbsp; Home &amp;nbsp;&amp;nbsp; Projects &amp;nbsp;&amp;nbsp; Info &amp;nbsp;&amp;nbsp; Skills &amp;nbsp;&amp;nbsp; Contacts&lt;/div&gt;" style="rounded=0;whiteSpace=wrap;html=1;align=left;" vertex="1" parent="1">
          <mxGeometry x="520" y="910" width="530" height="20" as="geometry" />
        </mxCell>
        <mxCell id="d_a2fTk9RsJFn1gCwMeB-124" value="TItle" style="rounded=0;whiteSpace=wrap;html=1;" vertex="1" parent="1">
          <mxGeometry x="520" y="890" width="530" height="20" as="geometry" />
        </mxCell>
        <mxCell id="d_a2fTk9RsJFn1gCwMeB-125" value="" style="rounded=0;whiteSpace=wrap;html=1;" vertex="1" parent="1">
          <mxGeometry x="520" y="930" width="110" height="330" as="geometry" />
        </mxCell>
        <mxCell id="d_a2fTk9RsJFn1gCwMeB-126" value="" style="rounded=0;whiteSpace=wrap;html=1;" vertex="1" parent="1">
          <mxGeometry x="630" y="930" width="420" height="20" as="geometry" />
        </mxCell>
        <mxCell id="d_a2fTk9RsJFn1gCwMeB-127" value="" style="ellipse;whiteSpace=wrap;html=1;aspect=fixed;" vertex="1" parent="1">
          <mxGeometry x="795" y="977.5" width="80" height="80" as="geometry" />
        </mxCell>
        <mxCell id="d_a2fTk9RsJFn1gCwMeB-128" value="&lt;h1 style=&quot;font-size: 13px;&quot;&gt;Lorem ipsum dolor sit amet, consectetur adipet dolore magna aliqua.&lt;/h1&gt;" style="text;html=1;strokeColor=none;fillColor=none;spacing=5;spacingTop=-20;whiteSpace=wrap;overflow=hidden;rounded=0;" vertex="1" parent="1">
          <mxGeometry x="755" y="1095" width="170" height="77.5" as="geometry" />
        </mxCell>
        <mxCell id="d_a2fTk9RsJFn1gCwMeB-129" value="" style="rounded=0;whiteSpace=wrap;html=1;" vertex="1" parent="1">
          <mxGeometry x="520" y="930" width="30" height="330" as="geometry" />
        </mxCell>
        <mxCell id="d_a2fTk9RsJFn1gCwMeB-130" value="" style="ellipse;whiteSpace=wrap;html=1;aspect=fixed;" vertex="1" parent="1">
          <mxGeometry x="525" y="950" width="20" height="20" as="geometry" />
        </mxCell>
        <mxCell id="d_a2fTk9RsJFn1gCwMeB-131" value="" style="ellipse;whiteSpace=wrap;html=1;aspect=fixed;" vertex="1" parent="1">
          <mxGeometry x="525" y="980" width="20" height="20" as="geometry" />
        </mxCell>
        <mxCell id="d_a2fTk9RsJFn1gCwMeB-132" value="" style="ellipse;whiteSpace=wrap;html=1;aspect=fixed;" vertex="1" parent="1">
          <mxGeometry x="525" y="1010" width="20" height="20" as="geometry" />
        </mxCell>
        <mxCell id="d_a2fTk9RsJFn1gCwMeB-133" value="" style="ellipse;whiteSpace=wrap;html=1;aspect=fixed;" vertex="1" parent="1">
          <mxGeometry x="525" y="1037.5" width="20" height="20" as="geometry" />
        </mxCell>
        <mxCell id="d_a2fTk9RsJFn1gCwMeB-134" value="" style="ellipse;whiteSpace=wrap;html=1;aspect=fixed;" vertex="1" parent="1">
          <mxGeometry x="525" y="1065" width="20" height="20" as="geometry" />
        </mxCell>
        <mxCell id="d_a2fTk9RsJFn1gCwMeB-135" value="&lt;div style=&quot;line-height: 150%;&quot;&gt;proyecto1&lt;/div&gt;&lt;div style=&quot;line-height: 150%;&quot;&gt;proyecto1&lt;/div&gt;&lt;div style=&quot;line-height: 150%;&quot;&gt;proyecto1&lt;/div&gt;&lt;div style=&quot;line-height: 150%;&quot;&gt;proyecto1&lt;/div&gt;&lt;div style=&quot;line-height: 150%;&quot;&gt;proyecto1&lt;/div&gt;&lt;div style=&quot;line-height: 150%;&quot;&gt;proyecto1&lt;br&gt;&lt;/div&gt;" style="text;html=1;strokeColor=none;fillColor=none;align=center;verticalAlign=middle;whiteSpace=wrap;rounded=0;" vertex="1" parent="1">
          <mxGeometry x="550" y="940" width="80" height="130" as="geometry" />
        </mxCell>
        <mxCell id="d_a2fTk9RsJFn1gCwMeB-136" style="edgeStyle=orthogonalEdgeStyle;rounded=0;orthogonalLoop=1;jettySize=auto;html=1;exitX=0.5;exitY=1;exitDx=0;exitDy=0;" edge="1" parent="1" source="d_a2fTk9RsJFn1gCwMeB-135" target="d_a2fTk9RsJFn1gCwMeB-135">
          <mxGeometry relative="1" as="geometry" />
        </mxCell>
        <mxCell id="d_a2fTk9RsJFn1gCwMeB-137" value="projecto 1&amp;nbsp; X" style="rounded=0;whiteSpace=wrap;html=1;" vertex="1" parent="1">
          <mxGeometry x="630" y="930" width="90" height="20" as="geometry" />
        </mxCell>
      </root>
    </mxGraphModel>
  </diagram>
</mxfile>
